<?xml version="1.0" encoding="UTF-8"?>
<svg xmlns="http://www.w3.org/2000/svg" xmlns:xlink="http://www.w3.org/1999/xlink" width="957.903pt" height="132.499pt" viewBox="0 0 957.903 132.499">
<defs>
<clipPath id="clip-0">
<path clip-rule="nonzero" d="M 1.753906 1 L 314 1 L 314 105 L 1.753906 105 Z M 1.753906 1 "/>
</clipPath>
<clipPath id="clip-1">
<path clip-rule="nonzero" d="M 871 1 L 956.050781 1 L 956.050781 105 L 871 105 Z M 871 1 "/>
</clipPath>
</defs>
<path fill-rule="nonzero" fill="rgb(100%, 100%, 100%)" fill-opacity="1" d="M 323.148438 52.957031 C 323.480469 15.332031 328.972656 2.8125 346.308594 2.8125 C 363.636719 2.8125 369.132812 15.332031 369.464844 52.957031 C 369.132812 90.585938 363.636719 103.105469 346.308594 103.105469 C 328.972656 103.105469 323.480469 90.585938 323.148438 52.957031 M 387.84375 53.007812 C 387.84375 52.992188 387.84375 52.976562 387.84375 52.957031 C 387.84375 52.941406 387.84375 52.925781 387.84375 52.910156 C 387.804688 16.679688 367.277344 0 346.308594 0 L 346.304688 0 C 325.335938 0 304.808594 16.679688 304.769531 52.910156 C 304.769531 52.925781 304.769531 52.941406 304.769531 52.957031 C 304.769531 52.976562 304.769531 52.992188 304.769531 53.007812 C 304.808594 89.238281 325.335938 105.917969 346.304688 105.917969 L 346.308594 105.917969 C 367.277344 105.917969 387.804688 89.238281 387.84375 53.007812 "/>
<path fill-rule="nonzero" fill="rgb(100%, 100%, 100%)" fill-opacity="1" d="M 807.308594 52.957031 C 807.636719 15.332031 813.132812 2.8125 830.464844 2.8125 C 847.796875 2.8125 853.289062 15.332031 853.621094 52.957031 C 853.289062 90.585938 847.796875 103.105469 830.464844 103.105469 C 813.132812 103.105469 807.636719 90.585938 807.308594 52.957031 M 872 53.007812 C 872 52.992188 872 52.976562 872 52.957031 C 872 52.941406 872 52.925781 872 52.910156 C 871.960938 16.679688 851.4375 0 830.464844 0 C 809.492188 0 788.964844 16.679688 788.929688 52.910156 L 788.925781 52.910156 C 788.925781 52.925781 788.929688 52.941406 788.929688 52.957031 C 788.929688 52.976562 788.925781 52.992188 788.925781 53.007812 L 788.929688 53.007812 C 788.964844 89.238281 809.492188 105.917969 830.464844 105.917969 C 851.4375 105.917969 871.960938 89.238281 872 53.007812 "/>
<g clip-path="url(#clip-0)">
<path fill-rule="nonzero" fill="rgb(100%, 100%, 100%)" fill-opacity="1" d="M 197.171875 101.453125 L 184.625 101.453125 L 184.636719 4.871094 L 197.628906 4.871094 L 215.269531 37.621094 L 218.609375 37.621094 L 216.316406 4.871094 L 229.023438 4.871094 L 229.023438 101.453125 L 216.65625 101.453125 L 216.65625 104.527344 L 259.496094 104.527344 L 259.496094 101.453125 L 246.996094 101.453125 L 246.996094 50.105469 L 290.777344 104.527344 L 313.519531 104.527344 L 268.390625 49.105469 L 246.996094 49.105469 L 295.65625 4.871094 L 310.722656 4.871094 L 310.722656 1.769531 L 275.320312 1.769531 L 275.320312 4.871094 L 291.066406 4.871094 L 246.996094 45.222656 L 246.996094 4.871094 L 259.347656 4.871094 L 259.347656 1.769531 L 135.121094 1.769531 L 134.519531 37.621094 L 120.667969 68.375 L 87.347656 1.917969 L 4.242188 1.769531 L 1.757812 37.621094 L 5.097656 37.621094 L 22.742188 4.871094 L 35.726562 4.871094 L 35.746094 101.453125 L 23.195312 101.453125 L 23.195312 104.554688 L 66.089844 104.554688 L 66.089844 101.453125 L 53.734375 101.453125 L 53.746094 4.871094 L 68.957031 4.871094 L 111.789062 89.078125 L 91.734375 89.078125 L 85.867188 104.554688 L 107.476562 104.554688 L 153.625 4.871094 L 166.617188 4.871094 C 166.617188 5.183594 166.632812 101.453125 166.632812 101.453125 L 154.085938 101.453125 L 154.085938 104.554688 L 197.171875 104.554688 Z M 197.171875 101.453125 "/>
</g>
<path fill-rule="nonzero" fill="rgb(100%, 100%, 100%)" fill-opacity="1" d="M 691.800781 101.433594 L 691.800781 4.871094 L 714.515625 4.871094 L 714.515625 101.453125 Z M 649.433594 4.871094 L 673.859375 4.871094 L 673.859375 101.433594 L 634.359375 101.433594 C 649.613281 69.160156 648.460938 27.796875 649.433594 4.871094 M 490.253906 101.453125 L 466.328125 101.453125 L 466.328125 4.871094 L 490.253906 4.871094 Z M 519.871094 101.453125 L 508.296875 101.453125 L 508.304688 51.28125 L 522.691406 51.28125 C 536.730469 51.28125 543.328125 60.480469 543.328125 75.882812 C 543.328125 91.382812 536.382812 101.453125 519.871094 101.453125 M 435.269531 101.453125 C 422.929688 101.453125 412.234375 94.113281 412.234375 76.367188 C 412.234375 60.457031 421.472656 51.28125 433.664062 51.28125 L 448.277344 51.28125 L 448.273438 101.453125 Z M 414.9375 26.609375 C 414.9375 11.457031 424.109375 4.871094 435.269531 4.871094 L 448.277344 4.871094 L 448.273438 48.179688 L 433.574219 48.179688 C 420.117188 48.179688 414.9375 38.625 414.9375 26.609375 M 706.457031 104.527344 L 744.863281 104.527344 L 744.863281 101.453125 L 732.484375 101.453125 L 732.484375 50.105469 L 776.269531 104.527344 L 799.007812 104.527344 L 753.878906 49.105469 L 732.484375 49.105469 L 781.144531 4.871094 L 796.210938 4.871094 L 796.210938 1.769531 L 760.808594 1.769531 L 760.808594 4.871094 L 776.558594 4.871094 L 732.484375 45.222656 L 732.484375 4.871094 L 744.863281 4.871094 L 744.863281 1.769531 L 615.699219 1.769531 L 615.699219 4.871094 L 632.3125 4.871094 C 632.3125 4.871094 607.375 66.347656 607.097656 66.945312 C 601.78125 56.34375 573.457031 1.890625 573.457031 1.890625 C 573.457031 1.890625 439.914062 1.769531 433.949219 1.769531 C 412.0625 1.769531 398.183594 11.125 398.183594 26.523438 C 398.183594 41.164062 413.09375 48.179688 425.355469 49.328125 L 425.355469 49.773438 C 411.257812 51.789062 394.273438 59.453125 394.273438 77.183594 C 394.273438 96.652344 409.722656 104.472656 431.230469 104.472656 C 433.867188 104.472656 517.441406 104.527344 524.308594 104.527344 C 549.054688 104.527344 561.046875 91.742188 561.046875 75.671875 C 561.046875 63.488281 552.976562 48.179688 520.386719 48.179688 C 518.25 48.179688 511.234375 48.171875 508.304688 48.179688 C 508.308594 27.0625 508.3125 4.871094 508.3125 4.871094 L 533.058594 4.871094 L 549 37.621094 L 552.34375 37.621094 L 550.980469 4.871094 L 555.378906 4.871094 L 598.9375 89.078125 L 578.832031 89.078125 L 572.964844 104.554688 L 594.625 104.554688 L 635.664062 4.871094 L 646.007812 4.871094 C 646.007812 31.222656 645.933594 71.714844 630.910156 101.433594 L 612.441406 101.433594 L 611.519531 132 L 615 132 C 625.582031 107.054688 625.394531 104.546875 631.371094 104.546875 L 688.71875 104.546875 C 692.910156 104.546875 693.636719 107.632812 703.894531 132 L 707.367188 132 Z M 706.457031 104.527344 "/>
<g clip-path="url(#clip-1)">
<path fill-rule="nonzero" fill="rgb(100%, 100%, 100%)" fill-opacity="1" d="M 935.386719 26.609375 C 935.386719 38.625 930.210938 48.179688 916.753906 48.179688 L 902.050781 48.179688 L 902.046875 4.871094 L 915.054688 4.871094 C 926.214844 4.871094 935.386719 11.457031 935.386719 26.609375 M 915.054688 101.453125 L 902.054688 101.453125 L 902.046875 51.28125 L 916.660156 51.28125 C 928.851562 51.28125 938.089844 60.457031 938.089844 76.367188 C 938.089844 94.113281 927.394531 101.453125 915.054688 101.453125 M 872.03125 1.816406 L 872.03125 4.871094 L 883.996094 4.871094 L 883.996094 101.453125 L 871.453125 101.453125 L 871.453125 104.5 C 894.253906 104.484375 917.734375 104.472656 919.09375 104.472656 C 940.601562 104.472656 956.050781 96.652344 956.050781 77.183594 C 956.050781 59.453125 939.070312 51.789062 924.96875 49.773438 L 924.96875 49.328125 C 937.230469 48.179688 952.140625 41.164062 952.140625 26.523438 C 952.140625 11.125 938.261719 1.769531 916.375 1.769531 C 913.921875 1.769531 894.289062 1.792969 872.03125 1.816406 "/>
</g>
</svg>
